<?xml version="1.0" encoding="iso-8859-1"?>
<!-- Generator: Adobe Illustrator 19.0.0, SVG Export Plug-In . SVG Version: 6.00 Build 0)  -->
<svg version="1.1" id="Capa_1" xmlns="http://www.w3.org/2000/svg" xmlns:xlink="http://www.w3.org/1999/xlink" x="0px" y="0px"
	 viewBox="0 0 511.999 511.999" style="enable-background:new 0 0 511.999 511.999;" xml:space="preserve">
<path style="fill:#E5E5E5;" d="M451.502,238.821v257.867H60.01V238.821c0-4.493,1.798-8.388,5.092-11.385L244.869,73.436
	c2.698-2.398,6.293-3.595,9.888-3.595s7.191,1.197,9.888,3.595L446.41,227.436C449.704,230.433,451.502,234.328,451.502,238.821z"/>
<path style="fill:#D9D9D9;" d="M451.502,238.821v257.867H254.757V69.841c3.595,0,7.191,1.197,9.888,3.595L446.41,227.435
	C449.704,230.433,451.502,234.328,451.502,238.821z"/>
<path style="fill:#E4741B;" d="M224.796,299.942h-89.883c-8.28,0-14.981,6.7-14.981,14.981v181.764h119.845V314.923
	C239.777,306.643,233.076,299.942,224.796,299.942z"/>
<path style="fill:#159CE4;" d="M376.599,421.784h-91.881c-8.28,0-14.981-6.7-14.981-14.981v-91.881c0-8.28,6.7-14.981,14.981-14.981
	h91.881c8.28,0,14.981,6.7,14.981,14.981v91.881C391.58,415.084,384.879,421.784,376.599,421.784z"/>
<path style="fill:#4DBBEB;" d="M254.757,150.137c-24.869,0-44.942,20.073-44.942,44.942c0,24.867,20.073,44.942,44.942,44.942
	s44.942-20.075,44.942-44.942C299.699,170.21,279.626,150.137,254.757,150.137z"/>
<path style="fill:#159CE4;" d="M254.757,240.02v-89.883c24.869,0,44.942,20.073,44.942,44.942
	C299.699,219.945,279.626,240.02,254.757,240.02z"/>
<path style="fill:#FD3018;" d="M495.845,190.884L284.119,11.117c-8.388-7.191-18.875-10.786-29.361-10.786
	c-10.485,0-20.973,3.595-29.361,10.786L15.669,190.884c-18.876,16.178-20.973,44.341-4.795,63.518
	c16.18,18.876,44.642,20.973,63.518,4.795l180.367-154.6l182.662,154.6C482.363,297.245,540.786,229.533,495.845,190.884z"/>
<path style="fill:#E61E14;" d="M437.421,259.195l-182.664-154.6V0.331c10.485,0,20.973,3.595,29.361,10.786l211.725,179.767
	C540.786,229.533,482.363,297.245,437.421,259.195z"/>
<path style="fill:#787780;" d="M496.444,511.668H15.068c-19.773,0-19.773-29.961,0-29.961h481.376
	C516.217,481.707,516.217,511.668,496.444,511.668z"/>
<path style="fill:#57555C;" d="M496.444,511.668H254.757v-29.961h241.687C516.217,481.707,516.217,511.668,496.444,511.668z"/>
<g>
</g>
<g>
</g>
<g>
</g>
<g>
</g>
<g>
</g>
<g>
</g>
<g>
</g>
<g>
</g>
<g>
</g>
<g>
</g>
<g>
</g>
<g>
</g>
<g>
</g>
<g>
</g>
<g>
</g>
</svg>
